<svg version="1.1" class="article-icon" xmlns="http://www.w3.org/2000/svg" xmlns:xlink="http://www.w3.org/1999/xlink" x="0px" y="0px" width="25" height="31.9" viewBox="0 0 25 31.9" style="enable-background:new 0 0 25 31.9;" xml:space="preserve">
                                    <path fill="#ED9C38" d="M21.9,1.5H18V0H7v1.5H3.1C1.4,1.5,0,2.9,0,4.6v24.1c0,1.7,1.4,3.1,3.1,3.1h18.7c1.7,0,3.1-1.4,3.1-3.1V4.6
                                    C25,2.9,23.6,1.5,21.9,1.5L21.9,1.5z M8.3,1.3h8.4V3H8.3V1.3z M23.7,28.8c0,1-0.8,1.8-1.8,1.8H3.1c-1,0-1.8-0.8-1.8-1.8V4.6
                                    c0-1,0.8-1.8,1.8-1.8H7v1.5h11V2.8h3.8c1,0,1.8,0.8,1.8,1.8v24.2H23.7z"/>
                                    <path fill="#ED9C38" d="M18.2,14.7l-0.7,1c-0.1,0.1-0.2,0.2-0.3,0.2c-0.1,0-0.2,0-0.3-0.2l0,0c-0.3-0.5-0.9-0.8-1.5-0.7
                                    s-1.1,0.4-1.4,1l-0.4,0.8C13.5,17,13.3,17,13.2,17c-0.1,0-0.3,0-0.3-0.3l-0.8-3.1c-0.2-0.7-0.8-1.3-1.6-1.3l0,0
                                    c-0.8,0-1.4,0.5-1.6,1.3l-0.7,2.9c-0.1,0.2-0.2,0.3-0.3,0.3s-0.3,0-0.4-0.2L6.8,15c-0.3-0.6-0.9-1-1.5-1H3.4v1.3h1.9
                                    c0.1,0,0.3,0.1,0.3,0.2L6.3,17c0.3,0.7,0.9,1.1,1.7,1c0.7-0.1,1.3-0.6,1.5-1.3l0.7-2.9c0.1-0.2,0.3-0.3,0.3-0.3
                                    c0.1,0,0.3,0,0.4,0.3l0.8,3.1c0.2,0.7,0.7,1.2,1.5,1.2c0.1,0,0.1,0,0.2,0c0.6,0,1.2-0.4,1.5-1l0.4-0.8c0.1-0.2,0.2-0.2,0.3-0.2
                                    s0.2,0,0.3,0.2l0,0c0.3,0.5,0.8,0.7,1.4,0.7l0,0c0.6,0,1.1-0.3,1.4-0.7l0.7-1c0.1-0.1,0.2-0.2,0.3-0.2h2v-1.3h-2
                                    C19,13.9,18.5,14.2,18.2,14.7L18.2,14.7z"/>
                                    <rect x="3.4" y="23.5" fill="#ED9C38" width="7.3" height="1.3"/>
                                    <rect x="3.4" y="26.7" fill="#ED9C38" width="14.7" height="1.3"/>
                                </svg>
