<svg version="1.1" class="article-icon" xmlns="http://www.w3.org/2000/svg" xmlns:xlink="http://www.w3.org/1999/xlink" x="0px" y="0px" width="35" height="32.9" viewBox="0 0 35 32.9" style="enable-background:new 0 0 35 32.9;" xml:space="preserve">
                                    <path fill="#ED9C38" d="M29.5,2.2h-4.4V1.1C25.1,0.4,24.7,0,24,0c-0.7,0-1.1,0.4-1.1,1.1v1.1H12V1.1C12,0.4,11.6,0,10.9,0
                                    c-0.7,0-1.1,0.4-1.1,1.1v1.1H5.5C2.4,2.2,0,4.6,0,7.6v19.7c0,3.1,2.4,5.5,5.5,5.5h24c3.1,0,5.5-2.4,5.5-5.5V7.6
                                    C35,4.6,32.6,2.2,29.5,2.2L29.5,2.2z M2.2,7.6c0-1.7,1.5-3.3,3.3-3.3h4.4v1.1c0,0.7,0.4,1.1,1.1,1.1c0.7,0,1.1-0.4,1.1-1.1V4.4
                                    h10.9v1.1c0,0.7,0.4,1.1,1.1,1.1c0.7,0,1.1-0.4,1.1-1.1V4.4h4.4c1.7,0,3.3,1.5,3.3,3.3v3.3H2.2V7.6z M32.8,27.3
                                    c0,1.7-1.5,3.3-3.3,3.3h-24c-1.7,0-3.3-1.5-3.3-3.3V13.1h30.6L32.8,27.3L32.8,27.3z"/>
                                    <path fill="#ED9C38" d="M7.6,27.3c0.7,0,1.1-0.2,1.5-0.7c0.4-0.4,0.7-1.1,0.7-1.5c0-0.4-0.2-1.1-0.7-1.5c-0.9-0.9-2.2-0.9-3.1,0
                                    c-0.4,0.4-0.7,0.9-0.7,1.5c0,0.4,0.2,1.1,0.7,1.5C6.6,27.1,7,27.3,7.6,27.3L7.6,27.3z"/>
                                    <path fill="#ED9C38" d="M7.6,20.7c0.7,0,1.1-0.2,1.5-0.7c0.4-0.4,0.7-1.1,0.7-1.5c0-0.4-0.2-1.1-0.7-1.5c-0.9-0.9-2.2-0.9-3.1,0
                                    c-0.4,0.4-0.7,0.9-0.7,1.5c0,0.7,0.2,1.1,0.7,1.5C6.6,20.5,7,20.7,7.6,20.7L7.6,20.7z"/>
                                    <path fill="#ED9C38" d="M14.2,27.3c0.7,0,1.1-0.2,1.5-0.7c0.4-0.4,0.7-1.1,0.7-1.5c0-0.4-0.2-1.1-0.7-1.5c-0.9-0.9-2.2-0.9-3.1,0
                                    C12.2,24,12,24.7,12,25.1c0,0.4,0.2,1.1,0.7,1.5C13.1,27.1,13.5,27.3,14.2,27.3L14.2,27.3z"/>
                                    <path fill="#ED9C38" d="M14.2,20.7c0.7,0,1.1-0.2,1.5-0.7c0.4-0.4,0.7-1.1,0.7-1.5c0-0.4-0.2-1.1-0.7-1.5c-0.9-0.9-2.2-0.9-3.1,0
                                    c-0.4,0.4-0.7,1.1-0.7,1.5c0,0.4,0.2,1.1,0.7,1.5C13.1,20.5,13.5,20.7,14.2,20.7L14.2,20.7z"/>
                                    <path fill="#ED9C38" d="M20.7,27.3c0.7,0,1.1-0.2,1.5-0.7c0.4-0.4,0.7-0.9,0.7-1.5c0-0.7-0.2-1.1-0.7-1.5c-0.9-0.9-2.2-0.9-3.1,0
                                    c-0.4,0.4-0.7,1.1-0.7,1.5c0,0.4,0.2,1.1,0.7,1.5C19.7,27.1,20.1,27.3,20.7,27.3L20.7,27.3z"/>
                                    <path fill="#ED9C38" d="M20.7,20.7c0.7,0,1.1-0.2,1.5-0.7c0.4-0.4,0.7-0.9,0.7-1.5c0-0.4-0.2-1.1-0.7-1.5c-0.9-0.9-2.2-0.9-3.1,0
                                    c-0.4,0.4-0.7,1.1-0.7,1.5c0,0.4,0.2,1.1,0.7,1.5C19.7,20.5,20.1,20.7,20.7,20.7L20.7,20.7z"/>
                                    <path fill="#ED9C38" d="M27.3,27.3c0.7,0,1.1-0.2,1.5-0.7c0.4-0.4,0.7-1.1,0.7-1.5c0-0.4-0.2-1.1-0.7-1.5c-0.9-0.9-2.2-0.9-3.1,0
                                    c-0.4,0.4-0.7,0.9-0.7,1.5c0,0.4,0.2,1.1,0.7,1.5C26.2,27.1,26.7,27.3,27.3,27.3L27.3,27.3z"/>
                                    <path fill="#ED9C38" d="M27.3,20.7c0.7,0,1.1-0.2,1.5-0.7c0.4-0.4,0.7-0.9,0.7-1.5c0-0.4-0.2-1.1-0.7-1.5c-0.9-0.9-2.2-0.9-3.1,0
                                    c-0.4,0.4-0.7,1.1-0.7,1.5c0,0.4,0.2,1.1,0.7,1.5C26.2,20.5,26.7,20.7,27.3,20.7L27.3,20.7z"/>
                                </svg>