<svg version="1.1" class="article-icon" xmlns="http://www.w3.org/2000/svg" xmlns:xlink="http://www.w3.org/1999/xlink" x="0px" y="0px" width="43" height="42.6" viewBox="0 0 43 42.6" style="enable-background:new 0 0 43 42.6;" xml:space="preserve">
    <path fill="#ED9C38" d="M14.1,42c0.4,0.4,0.8,0.6,1.4,0.6c0,0,0,0,0,0c0.5,0,1-0.2,1.3-0.5l2.2-2.1c0.3-0.3,0.3-0.8,0-1.1
    c-0.3-0.3-0.8-0.3-1.1,0l-2.2,2.1C15.6,41,15.5,41,15.4,41c-0.1,0-0.2,0-0.3-0.1L12,37.5l4.4-4.2l3.2,3.4c0.3,0.3,0.8,0.3,1.1,0
    c0.3-0.3,0.3-0.8,0-1.1l-0.9-0.9l7.5-7.1c0.3-0.3,0.3-0.8,0-1.1c-0.3-0.3-0.8-0.3-1.1,0l-7.5,7.1L8.9,23.3c0.9-1,1.3-2.2,1.7-3.4
    c0.1-0.3,0.2-0.6,0.3-0.9c0.4-1,0.9-1.7,1.8-2.6l10.2-9.8c0.6-0.6,1.3-0.8,2-0.6c0.7,0.2,1.2,0.8,1.4,1.4c0.2,0.7-0.1,1.5-0.8,2.2
    l-7.2,6.9c-0.3,0.3-0.3,0.8,0,1.1l0.5,0.6c0.4,0.5,0.7,1.1,0.7,1.7c0,0.6-0.3,1.2-0.7,1.7l-2.3,2.2c-0.3,0.3-0.3,0.8,0,1.1
    c0.2,0.2,0.4,0.2,0.6,0.2c0.2,0,0.4-0.1,0.5-0.2l2.3-2.2C20.5,22,20.9,21,21,20c0-1.1-0.4-2.1-1.1-2.8l0,0l5.8-5.6L40,18.4
    c0.1,0.1,0.2,0.1,0.3,0.1c0.3,0,0.6-0.2,0.7-0.4c0.2-0.4,0-0.9-0.4-1l-11-5.2c1-1,1.4-2.5,1.1-3.9c-0.5-2.4-2.7-3.8-5-3.3
    c-0.1,0-0.2,0.1-0.2,0.1c-0.1,0-0.2-0.1-0.3-0.1c-1.2-0.4-2.5,0-3.5,0.9l-10.2,9.8c-1.1,1.1-1.8,2-2.2,3.2c-0.1,0.3-0.2,0.6-0.3,1
    c-0.3,1-0.6,2-1.3,2.7l-0.6-0.6C6.8,21.2,6.3,21,5.8,21s-1,0.2-1.4,0.5l-3.8,3.7c-0.8,0.7-0.8,2-0.1,2.7L14.1,42z M29.3,8.2
    c0.2,1-0.1,2.1-0.9,2.7c-0.1,0-0.1,0.1-0.1,0.2l-1.3-0.6c0.8-1,1.2-2.2,0.9-3.3c-0.1-0.4-0.2-0.7-0.4-1C28.3,6.3,29.1,7.1,29.3,8.2z
        M1.7,26.3l3.8-3.7c0.1-0.1,0.2-0.1,0.3-0.1s0.2,0,0.3,0.1l9.2,9.6l-4.4,4.2l-9.2-9.6C1.5,26.7,1.5,26.4,1.7,26.3z"/>
    <path fill="#ED9C38" d="M39.6,0.9c0-0.4-0.4-0.7-0.8-0.7l-27,2.4c-0.5,0-0.9,0.3-1.2,0.6c-0.3,0.4-0.4,0.8-0.4,1.3l0.6,6.5
    c0,0.4,0.4,0.7,0.8,0.7c0,0,0.1,0,0.1,0c0.4,0,0.7-0.4,0.7-0.8l-0.6-6.5c0-0.1,0-0.1,0-0.1c0,0,0.1-0.1,0.1-0.1l27-2.4
    C39.3,1.7,39.6,1.3,39.6,0.9z"/>
    <path fill="#ED9C38" d="M41.3,13l-2.4,0.2c-0.4,0-0.7,0.4-0.7,0.8c0,0.4,0.4,0.7,0.8,0.7c0,0,0.1,0,0.1,0l2.4-0.2
    c0.5,0,0.9-0.3,1.2-0.6c0.3-0.4,0.4-0.8,0.4-1.3L42,1.6c-0.1-0.9-0.9-1.7-1.9-1.6l-1.9,0.2c-0.4,0-0.7,0.4-0.7,0.8s0.4,0.7,0.8,0.7
    l1.9-0.2c0.1,0,0.2,0.1,0.2,0.2l1,11.1c0,0.1,0,0.1,0,0.1C41.4,12.9,41.3,13,41.3,13z"/>
    <path fill="#ED9C38" d="M35.3,7.8c0.2,2,1.8,3.6,3.8,3.7c0,0,0,0,0,0c0.4,0,0.8-0.3,0.8-0.7c0-0.4-0.3-0.8-0.7-0.8
    c-1.2-0.1-2.2-1-2.4-2.3c-0.1-1.3,0.7-2.4,2-2.7c0.4-0.1,0.7-0.5,0.6-0.9c-0.1-0.4-0.5-0.7-0.9-0.6C36.6,3.8,35.2,5.7,35.3,7.8z"/>
    <path fill="#ED9C38" d="M16.1,5.2c-0.9-0.4-1.9-0.1-2.3,0.8L9.3,16.6c-0.2,0.4,0,0.9,0.4,1c0.1,0.1,0.2,0.1,0.3,0.1
    c0.3,0,0.6-0.2,0.7-0.4l4.5-10.6c0-0.1,0.1-0.1,0.2-0.1l4,1.9c0.4,0.2,0.9,0,1-0.4c0.2-0.4,0-0.9-0.4-1L16.1,5.2z"/>
    <path fill="#ED9C38" d="M22.3,24.5l13.2,6.2c0.2,0.1,0.5,0.2,0.7,0.2c0.6,0,1.3-0.4,1.6-1l4.8-10c0.2-0.4,0.2-0.9,0.1-1.3
    c-0.2-0.4-0.5-0.8-0.9-1l-1.7-0.8c-0.4-0.2-0.9,0-1,0.4c-0.2,0.4,0,0.9,0.4,1l1.7,0.8c0.1,0,0.1,0.1,0.1,0.1c0,0,0,0.1,0,0.1
    l-4.8,10c0,0.1-0.1,0.1-0.2,0.1L23,23c-0.4-0.2-0.9,0-1,0.4C21.8,23.8,21.9,24.3,22.3,24.5z"/>
    <path fill="#ED9C38" d="M23.9,21.8c0.6,0.3,1.2,0.4,1.9,0.4c1.6,0,3.2-1,3.9-2.5c0.5-1,0.6-2.2,0.2-3.3c-0.4-1.1-1.2-2-2.2-2.5
    c-0.6-0.3-1.2-0.4-1.9-0.4c-1.6,0-3.2,1-3.9,2.5C20.9,18.2,21.8,20.8,23.9,21.8z M23.3,16.8c0.5-0.9,1.4-1.6,2.5-1.6
    c0.4,0,0.8,0.1,1.2,0.3c0.7,0.3,1.2,0.9,1.4,1.6c0.2,0.7,0.2,1.4-0.1,2.1c-0.5,0.9-1.4,1.6-2.5,1.6c-0.4,0-0.8-0.1-1.2-0.3
    C23.2,19.8,22.7,18.1,23.3,16.8z"/>
    <path fill="#ED9C38" d="M33.7,21.7c-0.9,1.8-0.3,4,1.4,5.1c0.1,0.1,0.3,0.1,0.4,0.1c0.3,0,0.5-0.1,0.7-0.4c0.2-0.4,0.1-0.8-0.2-1.1
    c-1-0.7-1.4-2-0.9-3.2c0.6-1.2,1.9-1.7,3.1-1.3c0.4,0.2,0.9-0.1,1-0.5c0.2-0.4-0.1-0.9-0.5-1C36.8,19,34.7,19.9,33.7,21.7z"/>
</svg>