<svg version="1.1" class="article-icon" xmlns="http://www.w3.org/2000/svg" xmlns:xlink="http://www.w3.org/1999/xlink" x="0px" y="0px" width="49" height="27.8" viewBox="0 0 49 27.8" style="enable-background:new 0 0 49 27.8;" xml:space="preserve">
    <path fill="#ED9C38" d="M48.3,8.6C48,8.2,47.5,7.9,47,7.7C46.7,3.4,43.3,0,38.9,0H27.9c-1.2,0-2.3,0.2-3.5,0.7C23.4,0.2,22.2,0,21,0
    H10.6C6.3,0,2.8,3.3,2.4,7.5C1.8,7.7,1.1,8.1,0.7,8.7c-0.6,0.8-0.8,1.8-0.6,2.9L2,20.8v0.1c0.4,1.2,1.5,1.9,2.9,1.9H5v4.9h3.9
    l1.6-4.9h29l1.6,4.9h3.8v-4.9c1.2-0.1,2.2-0.9,2.7-2.1l1.4-9.4C49.1,10.3,48.9,9.3,48.3,8.6L48.3,8.6z M38.9,1.6
    c3.4,0,6.1,2.6,6.5,5.7c-0.1,0-0.2,0-0.3,0.1c-0.1,0-0.3,0-0.4,0.1c-0.1,0-0.3,0.1-0.4,0.1c-0.1,0-0.2,0.1-0.4,0.1
    c-0.1,0.1-0.3,0.1-0.4,0.2c-0.1,0.1-0.2,0.1-0.3,0.2c-0.1,0.1-0.3,0.2-0.4,0.3c-0.1,0.1-0.2,0.1-0.3,0.2C42.3,8.8,42.2,9,42,9.1
    c-0.1,0.1-0.1,0.1-0.2,0.2c-0.1,0.2-0.2,0.3-0.3,0.5c0,0.1-0.1,0.1-0.1,0.2c-0.1,0.2-0.2,0.5-0.3,0.7l0,0C41,11,41,11.2,41,11.5
    l-0.2,3.1H25.3V2.1c0.8-0.3,1.7-0.5,2.7-0.5C27.9,1.6,38.9,1.6,38.9,1.6z M10.6,1.6H21c0.9,0,1.8,0.2,2.7,0.5v12.6H8.3l-0.5-3.4
    c0-0.3-0.1-0.5-0.2-0.8c0-0.1-0.1-0.2-0.1-0.2c0-0.2-0.1-0.3-0.2-0.5c0-0.1-0.1-0.2-0.1-0.3C7.1,9.4,7,9.3,6.9,9.2
    C6.8,9.1,6.8,9,6.7,9C6.6,8.8,6.5,8.7,6.4,8.6c-0.1,0-0.1-0.1-0.2-0.2C6.1,8.3,5.9,8.2,5.8,8.2C5.7,8.1,5.7,8.1,5.6,8
    C5.4,7.9,5.3,7.8,5.1,7.8C5,7.8,5,7.7,4.9,7.7C4.7,7.6,4.4,7.5,4.2,7.5C4.5,4.2,7.3,1.6,10.6,1.6L10.6,1.6z M4.8,21.2
    c-0.5,0-1-0.3-1.2-0.8l-1.8-9.3c-0.1-0.5,0-1,0.3-1.4C2.3,9.2,2.7,9,3.2,9c1.4,0,2.8,1.1,3,2.6l1,9.7H4.8z M7.5,26.1h-1v-3.3h2.1
    L7.5,26.1z M10.9,21.2H9l-0.5-4.9h32.4l-0.2,4.9H10.9z M43.3,26.1h-1l-1.1-3.3h2.1V26.1z M47.3,11l-1.4,9.3
    c-0.2,0.5-0.7,0.9-1.3,0.9h-2.5l0.5-9.5c0.1-1.5,1.4-2.8,3-2.8c0.5,0,0.9,0.2,1.3,0.6C47.2,10,47.4,10.5,47.3,11L47.3,11z"/>
    <path fill="#ED9C38" d="M11.6,11.2c0.2,0.2,0.4,0.2,0.6,0.2c0.2,0,0.4-0.1,0.6-0.2l0.7-0.7c0.3,0.2,0.7,0.3,1.1,0.3
    c0.4,0,0.8-0.1,1.1-0.3l0.7,0.7c0.2,0.2,0.4,0.2,0.6,0.2c0.2,0,0.4-0.1,0.6-0.2c0.3-0.3,0.3-0.8,0-1.1L17,9.4c0.3-0.7,0.3-1.5,0-2.2
    l0.7-0.7c0.3-0.3,0.3-0.8,0-1.1c-0.3-0.3-0.8-0.3-1.1,0L15.9,6c-0.7-0.3-1.5-0.3-2.2,0l-0.8-0.9c-0.3-0.3-0.8-0.3-1.1,0
    c-0.3,0.3-0.3,0.8,0,1.1l0.7,0.7c-0.3,0.7-0.3,1.5,0,2.2l-0.7,0.7C11.3,10.3,11.3,10.9,11.6,11.2L11.6,11.2z M15.3,7.6
    c0.4,0.4,0.4,0.9,0,1.3c-0.3,0.4-0.9,0.4-1.3,0c-0.3-0.3-0.3-0.9,0-1.3c0.2-0.2,0.4-0.3,0.6-0.3C14.9,7.2,15.2,7.4,15.3,7.6
    L15.3,7.6z"/>
    <path fill="#ED9C38" d="M31.2,11.2c0.2,0.2,0.4,0.2,0.6,0.2s0.4-0.1,0.6-0.2l0.7-0.7c0.3,0.2,0.7,0.3,1.1,0.3c0.4,0,0.8-0.1,1.1-0.3
    l0.7,0.7c0.2,0.2,0.4,0.2,0.6,0.2c0.2,0,0.4-0.1,0.6-0.2c0.3-0.3,0.3-0.8,0-1.1l-0.7-0.7c0.3-0.7,0.3-1.5,0-2.2l0.7-0.7
    c0.3-0.3,0.3-0.8,0-1.1C37,5,36.5,5,36.2,5.3L35.5,6c-0.7-0.3-1.5-0.3-2.2,0l-0.8-0.9c-0.3-0.3-0.8-0.3-1.1,0
    c-0.3,0.3-0.3,0.8,0,1.1L32,6.9c-0.3,0.7-0.3,1.5,0,2.2l-0.7,0.7C30.9,10.3,30.9,10.9,31.2,11.2L31.2,11.2z M34.9,7.6
    c0.4,0.4,0.4,0.9,0,1.3c-0.3,0.3-0.9,0.3-1.2-0.1c-0.4-0.3-0.4-0.9,0-1.3c0.2-0.2,0.4-0.3,0.6-0.3C34.5,7.2,34.8,7.4,34.9,7.6
    L34.9,7.6z"/>
</svg>