<?xml version="1.0" encoding="utf-8"?>
<!-- Generator: Adobe Illustrator 21.1.0, SVG Export Plug-In . SVG Version: 6.00 Build 0)  -->
<svg version="1.1" id="Capa_1" xmlns="http://www.w3.org/2000/svg" xmlns:xlink="http://www.w3.org/1999/xlink" x="0px" y="0px"
	 viewBox="0 0 18 18" style="enable-background:new 0 0 18 18;" xml:space="preserve">
<g>
	<g>
		<g>
			<path d="M17.6,14.2l-2.8-2.8c-0.6-0.6-1.4-0.5-2,0.1l-1.4,1.4c-0.1-0.1-0.2-0.1-0.3-0.1c-0.9-0.5-2.1-1.2-3.4-2.5
				C6.5,9,5.8,7.8,5.2,6.9c0-0.1-0.1-0.2-0.1-0.3L6,5.7l0.4-0.4C7,4.7,7,3.7,6.5,3.2L3.8,0.4c-0.6-0.6-1.4-0.5-2,0.1L0.9,1.2l0,0
				C0.7,1.6,0.5,1.9,0.3,2.3S0.1,3.1,0.1,3.5c-0.4,3,1,5.8,4.8,9.7c5.2,5.2,9.4,4.8,9.6,4.8c0.4-0.1,0.8-0.1,1.2-0.3
				c0.4-0.1,0.8-0.4,1.2-0.6l0,0l0.8-0.8C18.2,15.7,18.2,14.7,17.6,14.2z"/>
		</g>
	</g>
</g>
</svg>
