<?xml version="1.0" encoding="utf-8"?>
<!-- Generator: Adobe Illustrator 21.1.0, SVG Export Plug-In . SVG Version: 6.00 Build 0)  -->
<svg version="1.1" id="Layer_1" xmlns="http://www.w3.org/2000/svg" xmlns:xlink="http://www.w3.org/1999/xlink" x="0px" y="0px"
	 viewBox="0 0 60 60" style="enable-background:new 0 0 60 60;" xml:space="preserve">
<style type="text/css">
	.st0{fill:none;stroke:#000000;stroke-width:5;}
</style>
<rect id="Rectangle_18_копия" x="2.5" y="2.5" class="st0" width="55" height="55"/>
<g>
	<g>
		<path d="M46.4,31.3c1-1,1-2.6,0-3.4L30.9,12.4c-1.9-1.9-4.6,0.9-2.8,2.8l11.7,11.7c0.4,0.4,0.3,0.7-0.3,0.7H13.8c-1.1,0-2,0.9-2,2
			c0,1.1,0.9,2,2,2h25.7c0.6,0,0.7,0.3,0.3,0.7L28.1,43.8c-1.9,1.9,0.9,4.6,2.8,2.8L46.4,31.3z"/>
	</g>
</g>
</svg>
