<?xml version="1.0" encoding="utf-8"?>
<!-- Generator: Adobe Illustrator 21.1.0, SVG Export Plug-In . SVG Version: 6.00 Build 0)  -->
<svg version="1.1" id="Layer_1" xmlns="http://www.w3.org/2000/svg" xmlns:xlink="http://www.w3.org/1999/xlink" x="0px" y="0px"
	 viewBox="0 0 60 60" style="enable-background:new 0 0 60 60;" xml:space="preserve">
<style type="text/css">
	.st0{fill:none;stroke:#FFFFFF;stroke-width:5;}
	.st1{fill:#FFFFFF;}
</style>
<rect id="Rectangle_18_копия" x="2.5" y="2.5" class="st0" width="55" height="55"/>
<g>
	<g>
		<path class="st1" d="M12.6,27.7c-1,1-1,2.6,0,3.4l15.5,15.4c1.9,1.9,4.6-0.9,2.8-2.8L19.1,32.2c-0.4-0.4-0.3-0.7,0.3-0.7h25.7
			c1.1,0,2-0.9,2-2c0-1.1-0.9-2-2-2H19.4c-0.6,0-0.7-0.3-0.3-0.7l11.7-11.7c1.9-1.9-0.9-4.6-2.8-2.8L12.6,27.7z"/>
	</g>
</g>
</svg>
