<?xml version="1.0" encoding="utf-8"?>
<!-- Generator: Adobe Illustrator 21.1.0, SVG Export Plug-In . SVG Version: 6.00 Build 0)  -->
<svg version="1.1" id="Layer_1" xmlns="http://www.w3.org/2000/svg" xmlns:xlink="http://www.w3.org/1999/xlink" x="0px" y="0px"
	 viewBox="0 0 24 18.3" style="enable-background:new 0 0 24 18.3;" xml:space="preserve">
<style type="text/css">
	.st0{fill:#ED9C38;}
</style>
<g>
	<path class="st0" d="M21.1,0H2.9C1.3,0,0,1.3,0,2.9v12.4c0,1.6,1.3,2.9,2.9,2.9h18.1c1.6,0,2.9-1.3,2.9-2.9V2.9
		C24,1.3,22.7,0,21.1,0L21.1,0z M22.7,15.3c0,0.9-0.7,1.6-1.6,1.6H2.9c-0.9,0-1.6-0.7-1.6-1.6V2.9c0-0.9,0.7-1.6,1.6-1.6h18.1
		c0.9,0,1.6,0.7,1.6,1.6V15.3L22.7,15.3z"/>
	<path class="st0" d="M15.1,9L21,3.7c0.3-0.2,0.3-0.7,0-0.9c-0.2-0.3-0.7-0.3-0.9,0L12,10l-1.6-1.4c0,0,0,0,0,0c0,0-0.1-0.1-0.1-0.1
		L3.9,2.7C3.6,2.5,3.2,2.5,2.9,2.8S2.7,3.5,3,3.7L8.9,9L3,14.6c-0.3,0.3-0.3,0.7,0,0.9c0.1,0.1,0.3,0.2,0.5,0.2
		c0.2,0,0.3-0.1,0.5-0.2l6-5.6l1.6,1.5c0.1,0.1,0.3,0.2,0.4,0.2c0.2,0,0.3-0.1,0.4-0.2l1.7-1.5l6,5.7c0.1,0.1,0.3,0.2,0.5,0.2
		c0.2,0,0.4-0.1,0.5-0.2c0.3-0.3,0.2-0.7,0-0.9L15.1,9z"/>
</g>
</svg>
