<?xml version="1.0" encoding="utf-8"?>
<!-- Generator: Adobe Illustrator 21.1.0, SVG Export Plug-In . SVG Version: 6.00 Build 0)  -->
<svg version="1.1" id="Layer_1" xmlns="http://www.w3.org/2000/svg" xmlns:xlink="http://www.w3.org/1999/xlink" x="0px" y="0px"
	 viewBox="0 0 16 26.6" style="enable-background:new 0 0 16 26.6;" xml:space="preserve">
<style type="text/css">
	.st0{fill:#ED9C38;}
</style>
<g>
	<path class="st0" d="M16,24.5V2.1C16,0.9,15.1,0,13.9,0H2.1C0.9,0,0,0.9,0,2.1v22.4c0,1.1,0.9,2.1,2.1,2.1h11.9
		C15.1,26.6,16,25.6,16,24.5L16,24.5z M1.3,4.8h13.3v15.1H1.3V4.8z M2.1,1.3h11.9c0.4,0,0.7,0.3,0.7,0.7v1.4H1.3V2.1
		C1.3,1.7,1.7,1.3,2.1,1.3L2.1,1.3z M1.3,24.5v-3.3h13.3v3.3c0,0.4-0.3,0.7-0.7,0.7H2.1C1.7,25.2,1.3,24.9,1.3,24.5L1.3,24.5z"/>
	<path class="st0" d="M9.4,22.6H6.6c-0.4,0-0.7,0.3-0.7,0.7s0.3,0.7,0.7,0.7h2.7c0.4,0,0.7-0.3,0.7-0.7C10,22.9,9.7,22.6,9.4,22.6
		L9.4,22.6z"/>
</g>
</svg>
