<?xml version="1.0" encoding="utf-8"?>
<!-- Generator: Adobe Illustrator 21.1.0, SVG Export Plug-In . SVG Version: 6.00 Build 0)  -->
<svg version="1.1" id="Layer_1" xmlns="http://www.w3.org/2000/svg" xmlns:xlink="http://www.w3.org/1999/xlink" x="0px" y="0px"
	 viewBox="0 0 22 22" style="enable-background:new 0 0 22 22;" xml:space="preserve">
<style type="text/css">
	.st0{fill:#ED9C38;}
</style>
<g>
	<path class="st0" d="M11.6,2.9c0,0.4-0.3,0.6-0.6,0.6s-0.6-0.3-0.6-0.6s0.3-0.6,0.6-0.6S11.6,2.5,11.6,2.9L11.6,2.9z"/>
	<path class="st0" d="M11,22C4.9,22,0,17.1,0,11C0,4.9,4.9,0,11,0s11,4.9,11,11C22,17,17.1,22,11,22L11,22z M11,1.3
		c-5.3,0-9.6,4.3-9.6,9.6s4.3,9.6,9.6,9.6c5.3,0,9.6-4.3,9.6-9.6C20.6,5.7,16.3,1.3,11,1.3L11,1.3z"/>
	<path class="st0" d="M11.6,19.1c0,0.4-0.3,0.6-0.6,0.6s-0.6-0.3-0.6-0.6c0-0.4,0.3-0.6,0.6-0.6S11.6,18.7,11.6,19.1L11.6,19.1z"/>
	<path class="st0" d="M19.7,11c0,0.4-0.3,0.6-0.6,0.6c-0.4,0-0.6-0.3-0.6-0.6s0.3-0.6,0.6-0.6S19.7,10.6,19.7,11L19.7,11z"/>
	<path class="st0" d="M3.6,11c0,0.4-0.3,0.6-0.6,0.6S2.3,11.3,2.3,11s0.3-0.6,0.6-0.6C3.3,10.3,3.6,10.6,3.6,11L3.6,11z"/>
	<path class="st0" d="M10.8,12.4c-0.2,0-0.4,0-0.5-0.2L8,9.9c-0.3-0.3-0.3-0.7,0-1c0.3-0.3,0.7-0.3,1,0l1.8,1.8l4.1-4.1
		c0.3-0.3,0.7-0.3,1,0c0.3,0.3,0.3,0.7,0,1l-4.5,4.6C11.1,12.3,11,12.4,10.8,12.4L10.8,12.4z"/>
</g>
</svg>
