<?xml version="1.0" encoding="utf-8"?>
<!-- Generator: Adobe Illustrator 21.1.0, SVG Export Plug-In . SVG Version: 6.00 Build 0)  -->
<svg version="1.1" id="Capa_1" xmlns="http://www.w3.org/2000/svg" xmlns:xlink="http://www.w3.org/1999/xlink" x="0px" y="0px"
	 viewBox="0 0 13 24" style="enable-background:new 0 0 13 24;" xml:space="preserve">
<style type="text/css">
	.st0{fill:#231F20;}
</style>
<g>
	<path class="st0" d="M12.5,0H9.4C5.9,0,3.6,2.3,3.6,5.9v2.7H0.5C0.2,8.6,0,8.9,0,9.2v4c0,0.2,0.2,0.5,0.5,0.5h3.1v9.9
		c0,0.3,0.2,0.5,0.5,0.5h4.1c0.3,0,0.5-0.2,0.5-0.5v-9.9h3.7c0.3,0,0.5-0.2,0.5-0.5v-4c0-0.1-0.1-0.3-0.2-0.3
		c-0.1-0.1-0.2-0.2-0.3-0.2H8.7V6.3c0-1.1,0.3-1.7,1.7-1.7h2.1c0.3,0,0.5-0.2,0.5-0.5V0.5C13,0.2,12.8,0,12.5,0z"/>
</g>
</svg>
