<?xml version="1.0" encoding="utf-8"?>
<!-- Generator: Adobe Illustrator 21.1.0, SVG Export Plug-In . SVG Version: 6.00 Build 0)  -->
<svg version="1.1" id="Layer_1" xmlns="http://www.w3.org/2000/svg" xmlns:xlink="http://www.w3.org/1999/xlink" x="0px" y="0px"
	 viewBox="0 0 45 30.8" style="enable-background:new 0 0 45 30.8;" xml:space="preserve">
<style type="text/css">
	.st0{fill:#ED9C38;}
</style>
<g>
	<path class="st0" d="M42.5,7.1c-1.5-1.6-3.6-2.5-6-2.5h-6.2V1.1c0-0.6-0.5-1.1-1.1-1.1H1.1C0.5,0,0,0.5,0,1.1V26
		c0,0.6,0.5,1.1,1.1,1.1h4.5c0.4,2.1,2.2,3.7,4.4,3.7s4-1.6,4.4-3.7h17.3c0.4,2.1,2.2,3.7,4.4,3.7c2.2,0,4-1.6,4.4-3.7h3.4
		c0.6,0,1.1-0.5,1.1-1.1V14.3C45,11.3,44.2,8.8,42.5,7.1L42.5,7.1z M2.3,2.3h25.9v22.6H14.2c-0.6-1.7-2.3-2.9-4.2-2.9
		s-3.6,1.2-4.2,2.9H2.3V2.3z M10,28.6c-1.2,0-2.2-1-2.2-2.2c0-1.2,1-2.2,2.2-2.2c1.2,0,2.2,1,2.2,2.2C12.2,27.6,11.2,28.6,10,28.6
		L10,28.6z M36.1,28.6c-1.2,0-2.2-1-2.2-2.2c0-1.2,1-2.2,2.2-2.2c1.2,0,2.2,1,2.2,2.2C38.3,27.6,37.3,28.6,36.1,28.6L36.1,28.6z
		 M42.7,24.9h-2.4c-0.6-1.7-2.3-2.9-4.2-2.9s-3.6,1.2-4.2,2.9h-1.5v-18h6.2c3.8,0,6.2,2.9,6.2,7.5L42.7,24.9L42.7,24.9z"/>
</g>
</svg>
