<?xml version="1.0" encoding="utf-8"?>
<!-- Generator: Adobe Illustrator 21.1.0, SVG Export Plug-In . SVG Version: 6.00 Build 0)  -->
<svg version="1.1" id="Layer_1" xmlns="http://www.w3.org/2000/svg" xmlns:xlink="http://www.w3.org/1999/xlink" x="0px" y="0px"
	 viewBox="0 0 20 20" style="enable-background:new 0 0 20 20;" xml:space="preserve">
<style type="text/css">
	.st0{fill:#B5B5B5;}
</style>
<g>
	<path class="st0" d="M13.1,6.2c0,0.6-0.5,1.1-1.1,1.1c-0.6,0-1.1-0.5-1.1-1.1S11.4,5,12,5C12.6,5,13.1,5.5,13.1,6.2L13.1,6.2z"/>
	<path class="st0" d="M0,19.4C0,19.4,0,19.5,0,19.4C0,19.5,0,19.5,0,19.4c0,0,0,0.1,0.1,0.1c0,0,0,0,0,0c0,0,0,0,0,0l0,0
		c0,0,0,0,0.1,0.1v0l0,0c0,0,0,0,0,0c0,0,0,0,0,0l0,0c0,0,0,0,0,0c0,0,0,0,0.1,0c0,0,0,0,0,0c0,0,0,0,0,0c0,0,0.1,0,0.2,0h18.6
		c0.4,0,0.7-0.3,0.7-0.7V0.7C20,0.3,19.7,0,19.3,0H0.7C0.3,0,0,0.3,0,0.7v18.5C0,19.3,0,19.4,0,19.4L0,19.4z M18.6,18.5H3.1L14.5,11
		l4.1,3.9L18.6,18.5L18.6,18.5z M1.4,1.4h17.2V13l-3.5-3.4c-0.2-0.2-0.6-0.3-0.9-0.1L11,11.7L8.7,9.4C8.4,9.2,8.1,9.1,7.8,9.3
		l-6.4,4V1.4z M1.4,15l6.7-4.2l1.7,1.7l-8.3,5.4V15z"/>
</g>
</svg>
