<?xml version="1.0" encoding="utf-8"?>
<!-- Generator: Adobe Illustrator 21.1.0, SVG Export Plug-In . SVG Version: 6.00 Build 0)  -->
<svg version="1.1" id="Layer_1" xmlns="http://www.w3.org/2000/svg" xmlns:xlink="http://www.w3.org/1999/xlink" x="0px" y="0px"
	 viewBox="0 0 21 21" style="enable-background:new 0 0 21 21;" xml:space="preserve">
<g>
	<path d="M15.2,0H5.8C2.6,0,0,2.6,0,5.8v9.4C0,18.4,2.6,21,5.8,21h9.4c3.2,0,5.8-2.6,5.8-5.8V5.8C21,2.6,18.4,0,15.2,0L15.2,0z
		 M19.1,15.2c0,2.2-1.8,3.9-3.9,3.9H5.8c-2.2,0-3.9-1.8-3.9-3.9V5.8c0-2.2,1.8-3.9,3.9-3.9h9.4c2.2,0,3.9,1.8,3.9,3.9V15.2z"/>
	<path d="M10.5,5.1c-3,0-5.4,2.4-5.4,5.4s2.4,5.4,5.4,5.4c3,0,5.4-2.4,5.4-5.4C15.9,7.5,13.5,5.1,10.5,5.1L10.5,5.1z M10.5,14.1
		c-2,0-3.6-1.6-3.6-3.5C7,8.5,8.5,7,10.5,7s3.6,1.6,3.6,3.5S12.5,14.1,10.5,14.1L10.5,14.1z"/>
	<path d="M16.1,3.5c-0.4,0-0.7,0.1-1,0.4c-0.2,0.2-0.4,0.6-0.4,1c0,0.4,0.1,0.7,0.4,1c0.2,0.2,0.6,0.4,1,0.4c0.4,0,0.7-0.1,1-0.4
		c0.2-0.2,0.4-0.6,0.4-1s-0.1-0.7-0.4-1C16.9,3.7,16.5,3.5,16.1,3.5L16.1,3.5z"/>
</g>
</svg>
