<?xml version="1.0" encoding="utf-8"?>
<!-- Generator: Adobe Illustrator 21.1.0, SVG Export Plug-In . SVG Version: 6.00 Build 0)  -->
<svg version="1.1" id="Layer_1" xmlns="http://www.w3.org/2000/svg" xmlns:xlink="http://www.w3.org/1999/xlink" x="0px" y="0px"
	 viewBox="0 0 18 29.9" style="enable-background:new 0 0 18 29.9;" xml:space="preserve">
<style type="text/css">
	.st0{fill:#B5B5B5;}
</style>
<path class="st0" d="M9,24.5c-0.9,0-1.7,0.7-1.7,1.7c0,0.9,0.7,1.7,1.7,1.7c0.9,0,1.7-0.7,1.7-1.7C10.7,25.2,9.9,24.5,9,24.5z
	 M9,26.6c-0.3,0-0.5-0.2-0.5-0.5s0.2-0.5,0.5-0.5s0.5,0.2,0.5,0.5C9.5,26.4,9.3,26.6,9,26.6z"/>
<path class="st0" d="M8.8,3.6h2.9c0.3,0,0.6-0.3,0.6-0.6c0-0.3-0.3-0.6-0.6-0.6H8.8C8.4,2.4,8.2,2.6,8.2,3C8.2,3.3,8.4,3.6,8.8,3.6z
	"/>
<circle class="st0" cx="6.9" cy="3" r="0.6"/>
<path class="st0" d="M16.1,0H1.9C0.9,0,0,0.9,0,1.9V28c0,1.1,0.9,1.9,1.9,1.9h14.2c1.1,0,1.9-0.9,1.9-1.9V1.9C18,0.9,17.1,0,16.1,0z
	 M16.7,28c0,0.4-0.3,0.6-0.6,0.6H1.9c-0.4,0-0.6-0.3-0.6-0.6V1.9c0-0.4,0.3-0.6,0.6-0.6h14.2c0.4,0,0.6,0.3,0.6,0.6V28z"/>
<path class="st0" d="M6.6,16.2c0.2,0,0.3-0.1,0.5-0.2l3.1-3.1c0.3-0.3,0.3-0.7,0-0.9s-0.7-0.3-0.9,0l-3.1,3.1
	c-0.3,0.3-0.3,0.7,0,0.9C6.2,16.1,6.4,16.2,6.6,16.2z"/>
<path class="st0" d="M9.8,15.9c0.1,0.1,0.3,0.2,0.5,0.2s0.3-0.1,0.5-0.2l1.2-1.2c0.3-0.3,0.3-0.7,0-0.9c-0.3-0.3-0.7-0.3-0.9,0
	L9.8,15C9.5,15.3,9.5,15.7,9.8,15.9z"/>
<path class="st0" d="M14.8,4.7H3.2C2.9,4.7,2.6,5,2.6,5.3v17.6c0,0.3,0.3,0.6,0.6,0.6h11.6c0.3,0,0.6-0.3,0.6-0.6V5.3
	C15.4,5,15.1,4.7,14.8,4.7z M14.2,22.4H3.8V5.9h10.5L14.2,22.4L14.2,22.4z"/>
</svg>
