<?xml version="1.0" encoding="utf-8"?>
<!-- Generator: Adobe Illustrator 21.1.0, SVG Export Plug-In . SVG Version: 6.00 Build 0)  -->
<svg version="1.1" id="Layer_1" xmlns="http://www.w3.org/2000/svg" xmlns:xlink="http://www.w3.org/1999/xlink" x="0px" y="0px"
	 viewBox="0 0 35 35" style="enable-background:new 0 0 35 35;" xml:space="preserve">
<style type="text/css">
	.st0{fill:none;stroke:#ED9C38;stroke-width:5;}
	.st1{fill:#ED9C38;}
</style>
<rect id="Rectangle_18_копия_8" x="2.5" y="2.5" class="st0" width="30" height="30"/>
<g>
	<g>
		<path class="st1" d="M18.2,8.5c-0.5-0.5-1.4-0.5-1.9,0L7.9,17c-1,1,0.5,2.5,1.5,1.5l6.4-6.4c0.2-0.2,0.4-0.2,0.4,0.2v14
			c0,0.6,0.5,1.1,1.1,1.1c0.6,0,1.1-0.5,1.1-1.1v-14c0-0.3,0.2-0.4,0.4-0.2l6.4,6.4c1,1,2.5-0.5,1.5-1.5L18.2,8.5z"/>
	</g>
</g>
</svg>
