<svg id="Слой_1" data-name="Слой 1" xmlns="http://www.w3.org/2000/svg" viewBox="0 0 40.04 35.32"><defs><style>.cls-1,.cls-2{fill:#f4f4f4;}.cls-1{stroke:#f4f4f4;stroke-miterlimit:10;}</style></defs><title>DM</title><path class="cls-1" d="M16.4,7.3v9.08a6.81,6.81,0,0,1-6.8,6.8H.92q-.41,0-.41-.44V.94Q.51.5.92.5H9.59a6.81,6.81,0,0,1,6.8,6.8ZM13,7.3A3.4,3.4,0,0,0,9.59,3.91H3.89V19.77h5.7A3.4,3.4,0,0,0,13,16.38Z" transform="translate(0 0.01)"/><path class="cls-1" d="M39.54,22.75q0,.44-.41.44H36.57q-.41,0-.41-.44V7.3l-4.43,8.32a.38.38,0,0,1-.38.19H28.44a.35.35,0,0,1-.35-.19L23.63,7.3V22.75q0,.44-.41.44H20.68q-.41,0-.41-.44V.94q0-.44.41-.44h2.76a.4.4,0,0,1,.35.19l6.14,11.43L36,.68a.4.4,0,0,1,.35-.19h2.75q.41,0,.41.44Z" transform="translate(0 0.01)"/><path class="cls-2" d="M8.91,35.18H6.73V29.4L5.18,33.13H3.65L2.06,29.4v5.78H0V26.46H2.53l1.93,4.31,1.93-4.31H8.92Z" transform="translate(0 0.01)"/><path class="cls-2" d="M10.72,35.18V26.46h5.9v1.66H12.9v1.56h3.43v1.66H12.9v2.2h3.72v1.64Z" transform="translate(0 0.01)"/><path class="cls-2" d="M25.1,32.39a2.81,2.81,0,0,1-.24,1.17,2.35,2.35,0,0,1-.67.88A3.08,3.08,0,0,1,23.1,35a5.22,5.22,0,0,1-1.42.17H18.1V26.46h6.34v1.66H20.28v1.61h1.44a7.82,7.82,0,0,1,1.41.11,2.51,2.51,0,0,1,1.11.5,2,2,0,0,1,.66.88A3.2,3.2,0,0,1,25.1,32.39Zm-2.26.06a1.74,1.74,0,0,0,0-.41.78.78,0,0,0-.21-.36,1.11,1.11,0,0,0-.43-.25,2.45,2.45,0,0,0-.76-.09H20.28v2.22h1.11a1.74,1.74,0,0,0,1.06-.29,1,1,0,0,0,.39-.81Z" transform="translate(0 0.01)"/><path class="cls-2" d="M33.84,35.18H31.65V28.12h-2.2v1q0,.44,0,.84a17,17,0,0,1-.21,2,8.64,8.64,0,0,1-.33,1.36,4.41,4.41,0,0,1-.42.88,3.22,3.22,0,0,1-.4.51,2,2,0,0,1-.7.44,2.32,2.32,0,0,1-.83.16h-1V33.25h.34a1.94,1.94,0,0,0,.38,0,.7.7,0,0,0,.35-.16,2.21,2.21,0,0,0,.58-1.23,19.73,19.73,0,0,0,.24-2.41v-3h6.43Z" transform="translate(0 0.01)"/><path class="cls-2" d="M40,35.18h-4.7v-1.5h1.25V28H35.29V26.46H40V28H38.74v5.7H40Z" transform="translate(0 0.01)"/></svg>