<?xml version="1.0" encoding="utf-8"?>
<!-- Generator: Adobe Illustrator 21.1.0, SVG Export Plug-In . SVG Version: 6.00 Build 0)  -->
<svg version="1.1" id="Layer_1" xmlns="http://www.w3.org/2000/svg" xmlns:xlink="http://www.w3.org/1999/xlink" x="0px" y="0px"
	 viewBox="0 0 448 124.6" style="enable-background:new 0 0 448 124.6;" xml:space="preserve">
<style type="text/css">
	.st0{fill:#F4F4F4;}
	.st1{font-family:'SegoeUI';}
	.st2{font-size:85.2893px;}
</style>
<g id="surface2" transform="matrix(1.5104992096646788,-0.00039191852316990003,0.00039191852316990003,1.5104992096646788,-140.67379223156652,-62.714421577292185)">
	<path class="st0" d="M141.5,114.7c-21.7-4.7-33.7-10.9-36.1-18.5c-2.4-7.6,4.8-15.2,21.8-22.8c-22.8,8-33.9,16.3-33.3,24.9
		c0.6,8.5,12.8,15.4,36.5,20.6c16.2,3.2,34.6,5,55,5.2c20.4,0.2,40.8-1,61-3.6c20.2-2.6,38.2-6.5,53.9-11.6
		c4.2-1.4,8.1-2.9,11.5-4.4c-0.2,0.1-0.3,0.1-0.5,0.2c-15.7,5.2-33.7,9-53.9,11.6c-20.3,2.6-40.6,3.8-61,3.6
		C176.1,119.7,157.7,118,141.5,114.7"/>
	<path class="st0" d="M339.7,48.7c-22.2-4.4-47.4-6.8-75.4-7c-28-0.3-55.8,1.4-83.6,4.9c-27.8,3.6-52.4,8.9-73.9,15.9
		c-5,1.7-9.6,3.4-13.8,5.2c0.9-0.3,1.8-0.7,2.8-1c21.5-7,46.2-12.3,73.9-15.9c27.7-3.6,55.6-5.2,83.6-4.9c28,0.3,53.1,2.6,75.3,7.1
		c30,6.5,46.5,15.1,49.5,25.8c3,10.6-7.7,21.2-32,31.7c30.1-10.9,44.6-22.1,43.4-33.7C388.5,65,371.8,55.7,339.7,48.7"/>
</g>
<g id="surface4">
	<text transform="matrix(1 0 0 1 72.3225 88.8626)" class="st0 st1 st2">Moylen</text>
</g>
</svg>
