<?xml version="1.0" encoding="utf-8"?>
<!-- Generator: Adobe Illustrator 21.1.0, SVG Export Plug-In . SVG Version: 6.00 Build 0)  -->
<svg version="1.1" id="Layer_1" xmlns="http://www.w3.org/2000/svg" xmlns:xlink="http://www.w3.org/1999/xlink" x="0px" y="0px"
	 viewBox="0 0 139 38.7" style="enable-background:new 0 0 139 38.7;" xml:space="preserve">
<style type="text/css">
	.st0{fill:#050505;}
	.st1{font-family:'SegoeUI';}
	.st2{font-size:26.46px;}
</style>
<g id="surface2" transform="matrix(1.5104992096646788,-0.00039191852316990003,0.00039191852316990003,1.5104992096646788,-140.67379223156652,-62.714421577292185)">
	<path d="M108.1,64.2c-6.7-1.5-10.5-3.4-11.2-5.7c-0.8-2.4,1.5-4.7,6.8-7.1c-7.1,2.5-10.5,5.1-10.3,7.7c0.2,2.6,4,4.8,11.3,6.4
		c5,1,10.7,1.5,17,1.6c6.3,0.1,12.6-0.3,18.9-1.1c6.3-0.8,11.9-2,16.7-3.6c1.3-0.4,2.5-0.9,3.6-1.4c-0.1,0-0.1,0-0.2,0
		c-4.9,1.6-10.5,2.8-16.7,3.6c-6.3,0.8-12.6,1.2-18.9,1.1C118.9,65.8,113.2,65.3,108.1,64.2"/>
	<path class="st0" d="M169.6,43.8c-6.9-1.4-14.7-2.1-23.4-2.2c-8.7-0.1-17.3,0.4-25.9,1.5c-8.6,1.1-16.3,2.8-22.9,4.9
		c-1.6,0.5-3,1.1-4.3,1.6c0.3-0.1,0.6-0.2,0.9-0.3c6.7-2.2,14.3-3.8,22.9-4.9c8.6-1.1,17.2-1.6,25.9-1.5c8.7,0.1,16.5,0.8,23.4,2.2
		c9.3,2,14.4,4.7,15.4,8c0.9,3.3-2.4,6.6-9.9,9.8c9.3-3.4,13.8-6.9,13.5-10.5C184.8,48.8,179.6,45.9,169.6,43.8"/>
</g>
<g id="surface4">
	<text transform="matrix(1 0 0 1 22.4373 27.5687)" class="st1 st2">Moylen</text>
</g>
</svg>
