<?xml version="1.0" standalone="no"?>
<!DOCTYPE svg PUBLIC "-//W3C//DTD SVG 20010904//EN"
 "http://www.w3.org/TR/2001/REC-SVG-20010904/DTD/svg10.dtd">
<svg version="1.0" xmlns="http://www.w3.org/2000/svg"
 width="1216.000000pt" height="1216.000000pt" viewBox="0 0 1216.000000 1216.000000"
 preserveAspectRatio="xMidYMid meet">
<metadata>
Created by potrace 1.11, written by Peter Selinger 2001-2013
</metadata>
<g transform="translate(0.000000,1216.000000) scale(0.100000,-0.100000)"
fill="#000000" stroke="none">
<path d="M184 9652 c-70 -12 -111 -38 -155 -102 l-24 -35 -2 -3415 c-1 -2114
2 -3429 7 -3451 15 -54 59 -105 112 -129 48 -20 49 -20 1500 -17 799 1 1464 6
1478 10 22 6 42 10 125 22 36 5 199 48 216 56 9 4 27 10 40 13 39 8 150 51
217 84 34 17 62 29 62 27 0 -2 34 16 75 40 42 25 80 45 85 45 6 0 10 4 10 9 0
5 13 13 28 19 16 5 35 16 43 24 8 8 25 20 37 27 13 7 31 19 40 27 9 9 52 42
95 76 44 33 87 67 96 76 10 10 42 40 72 68 68 65 132 133 189 204 25 30 48 57
51 60 27 22 192 289 244 395 36 73 65 135 65 138 0 3 4 16 9 29 5 13 10 28 11
33 1 6 7 19 13 30 6 11 12 25 13 30 2 6 17 62 34 125 18 63 33 124 35 135 2
11 6 36 9 55 14 87 17 121 22 210 7 127 10 361 5 366 -7 7 -8 44 -2 44 9 0 5
166 -4 180 -5 7 -4 11 1 8 7 -5 11 222 4 242 -5 15 -6 50 -1 50 9 0 5 166 -4
180 -5 7 -4 11 1 8 7 -5 11 222 4 242 -5 15 -6 50 -1 50 9 0 5 166 -4 180 -5
7 -4 11 1 8 7 -5 11 222 4 242 -5 15 -6 50 -1 50 9 0 5 166 -4 180 -5 7 -4 11
1 8 7 -5 11 222 4 242 -5 15 -6 50 -1 50 9 0 5 166 -4 180 -5 7 -4 11 1 8 7
-5 11 222 4 242 -5 15 -6 50 -1 50 10 0 0 276 -13 360 -9 61 -18 115 -22 130
-61 268 -150 485 -287 705 -114 182 -295 395 -447 525 -14 12 -34 29 -45 38
-156 133 -396 278 -590 357 -191 78 -336 117 -520 140 -22 3 -58 8 -80 11 -41
6 -2815 12 -2851 6z m2811 -1216 c17 -4 44 -9 60 -13 17 -4 35 -8 41 -9 19 -3
139 -47 149 -54 6 -4 37 -22 70 -39 214 -116 394 -333 471 -568 50 -153 49
-140 48 -1683 -1 -795 -4 -1467 -8 -1495 -7 -53 -43 -188 -56 -214 -5 -9 -21
-43 -37 -76 -36 -74 -54 -105 -71 -123 -6 -7 -25 -32 -42 -55 -94 -134 -314
-289 -482 -340 -140 -43 -156 -44 -1068 -43 l-875 1 0 2355 c0 1295 3 2357 6
2360 11 8 1758 3 1794 -4z"/>
<path d="M6212 9638 c-57 -22 -85 -49 -113 -107 -19 -40 -21 -61 -19 -156 1
-60 1 -116 1 -122 0 -7 0 -42 0 -78 0 -36 0 -71 0 -77 -1 -11 -1 -278 -1 -333
0 -11 0 -39 0 -63 0 -23 2 -47 5 -52 4 -6 3 -10 -2 -10 -7 0 -9 -93 -2 -110 1
-3 1 -9 0 -13 -1 -7 -1 -194 0 -327 0 -8 -1 -40 -1 -70 -1 -30 -1 -59 0 -65 2
-5 2 -13 1 -17 0 -6 -1 -85 -1 -133 0 -17 1 -146 1 -180 0 -5 0 -44 0 -85 0
-41 0 -82 0 -90 0 -8 -1 -40 -1 -70 -1 -30 -1 -59 0 -65 2 -5 2 -13 1 -17 0
-6 -1 -85 -1 -133 0 -17 1 -146 1 -180 0 -5 0 -44 0 -85 0 -41 0 -82 0 -90 0
-8 -1 -40 -1 -70 -1 -30 -1 -59 0 -65 2 -5 2 -13 1 -17 0 -6 -1 -85 -1 -133 0
-17 1 -146 1 -180 0 -5 0 -44 0 -85 0 -41 0 -82 0 -90 0 -8 -1 -40 -1 -70 -1
-30 -1 -59 0 -65 2 -5 2 -13 1 -17 0 -6 -1 -85 -1 -133 0 -11 1 -54 1 -95 0
-41 0 -79 0 -85 0 -5 0 -57 0 -115 -1 -58 -1 -114 -1 -125 0 -11 0 -39 0 -63
0 -23 2 -47 5 -52 4 -6 3 -10 -2 -10 -7 0 -9 -93 -2 -110 1 -3 1 -9 0 -14 -1
-4 -1 -52 -1 -105 1 -53 1 -104 1 -113 0 -10 0 -47 0 -83 0 -36 0 -71 0 -77
-1 -41 -1 -316 0 -330 0 -10 0 -38 0 -63 0 -25 0 -52 0 -60 0 -8 0 -35 0 -60
0 -55 0 -59 -2 -115 0 -25 0 -49 1 -55 1 -5 1 -41 0 -80 0 -38 0 -97 0 -130 0
-33 1 -64 1 -70 -1 -8 -1 -231 -1 -330 0 -11 0 -39 0 -63 0 -23 2 -47 5 -52 4
-6 3 -10 -2 -10 -7 0 -9 -93 -2 -110 1 -3 1 -9 0 -13 -1 -7 -1 -194 0 -327 0
-8 -1 -41 -2 -73 -1 -31 0 -59 3 -62 2 -2 1 -29 -2 -59 -3 -30 -3 -63 1 -73 3
-10 3 -27 -1 -37 -8 -24 6 -123 23 -155 18 -36 59 -74 100 -93 32 -15 82 -17
472 -18 406 0 439 1 479 18 67 30 106 76 122 147 5 19 8 529 4 550 -1 6 -1 13
0 18 1 4 2 43 2 87 0 44 -1 83 -2 88 -1 4 -2 11 -1 16 7 32 5 88 -1 92 -5 3
-6 10 -2 16 6 9 9 169 4 193 -1 6 -1 15 0 20 1 6 1 136 1 290 -1 154 -2 285
-2 290 0 6 1 51 2 100 0 50 0 95 -1 100 -1 6 -1 15 0 20 3 12 2 576 0 590 -1
6 -1 13 0 18 1 4 2 43 2 87 0 44 -1 83 -2 88 -1 4 -2 11 -1 16 7 32 5 88 -1
92 -5 3 -6 10 -2 16 6 9 9 169 4 193 -1 6 -1 15 0 20 1 6 1 136 1 290 -1 154
-2 285 -2 290 0 6 1 51 2 100 0 50 0 95 -1 100 -1 6 -1 15 0 20 1 6 2 160 2
343 0 207 3 330 9 326 5 -3 7 -10 4 -15 -4 -5 -2 -9 3 -9 5 0 12 -8 15 -17 7
-22 84 -162 99 -180 6 -7 7 -13 3 -13 -4 0 -3 -6 3 -12 5 -7 25 -40 42 -73 57
-106 96 -178 145 -270 26 -49 61 -115 78 -145 16 -30 54 -102 85 -160 30 -58
66 -125 80 -150 45 -81 52 -95 52 -107 0 -6 4 -13 8 -15 5 -1 37 -57 72 -123
34 -66 77 -147 95 -180 18 -33 52 -96 75 -140 24 -44 55 -102 70 -130 15 -27
58 -108 95 -180 38 -71 87 -164 109 -205 23 -41 52 -95 65 -120 23 -45 84
-100 118 -108 27 -7 971 -11 1026 -5 33 3 61 15 89 37 44 34 45 35 173 281
143 276 177 339 187 353 6 6 7 12 3 12 -4 0 -2 6 4 14 6 7 33 56 60 107 26 52
83 162 126 244 44 83 99 191 124 240 25 50 49 92 54 93 4 2 7 12 7 22 0 10 3
20 8 22 4 2 20 30 37 63 16 33 38 72 48 88 10 15 16 27 13 27 -2 0 14 35 38
78 23 42 52 97 65 122 12 25 44 86 70 135 26 50 80 153 120 230 41 77 77 145
82 151 5 6 6 13 3 16 -2 3 1 8 8 10 11 5 13 -406 13 -2232 0 -1969 2 -2240 15
-2266 24 -46 59 -82 103 -103 39 -20 60 -21 474 -21 382 0 439 2 475 17 49 20
82 52 107 107 18 37 19 168 19 3455 0 3304 0 3417 -18 3456 -10 22 -25 47 -32
55 -18 21 -78 63 -78 54 0 -3 -6 -2 -13 4 -9 8 -158 11 -471 12 -433 0 -460
-1 -502 -19 -24 -11 -56 -32 -70 -48 -26 -28 -62 -90 -62 -107 0 -5 -5 -12
-10 -15 -5 -3 -33 -51 -62 -106 -28 -55 -65 -125 -82 -155 -16 -30 -44 -82
-61 -115 -17 -33 -33 -62 -36 -65 -4 -3 -19 -32 -35 -65 -16 -33 -32 -62 -36
-65 -3 -3 -12 -21 -20 -40 -8 -19 -16 -37 -20 -40 -3 -3 -18 -30 -34 -60 -50
-94 -88 -164 -107 -196 -10 -17 -16 -34 -12 -37 3 -4 2 -7 -4 -7 -5 0 -18 -19
-29 -42 -10 -24 -21 -45 -24 -48 -3 -3 -16 -25 -29 -50 -28 -55 -104 -197
-141 -265 -15 -27 -46 -84 -68 -125 -22 -41 -72 -136 -112 -210 -40 -74 -91
-169 -113 -210 -95 -177 -121 -226 -199 -370 -25 -47 -65 -121 -88 -165 -24
-44 -57 -105 -73 -135 -17 -30 -53 -98 -80 -150 -27 -52 -53 -99 -57 -105 -4
-5 -36 -64 -71 -130 -34 -66 -73 -138 -86 -160 -12 -22 -30 -56 -40 -75 -9
-19 -27 -52 -39 -73 l-22 -39 -29 54 c-29 51 -67 122 -168 313 -26 50 -55 104
-65 120 -10 17 -41 75 -70 130 -56 107 -105 199 -150 280 -31 56 -110 206
-178 335 -24 47 -48 90 -52 95 -4 6 -40 73 -80 150 -40 77 -76 145 -80 150 -4
6 -32 57 -62 115 -31 58 -69 130 -85 160 -38 70 -103 192 -161 300 -25 47 -72
135 -104 195 -32 61 -63 117 -67 125 -4 8 -21 40 -38 70 -30 54 -88 163 -165
310 -41 76 -94 175 -168 310 -22 41 -52 98 -66 127 -31 62 -64 98 -119 126
-39 20 -55 20 -499 21 -410 1 -464 -1 -504 -16z"/>
</g>
</svg>
